# xmcd
#
# Track frame offsets: 
#        150
#        8108
#        23491
#        50645
#        75675
#
# Disc length: 1207 seconds
#
# Revision: 1
# Processed by: cddbd v1.5.1PL2 Copyright (c) Steve Scherf et al.
# Submitted via: ExactAudioCopy v0.95b4
#
DISCID=2e04b505
DTITLE=Pilsner Urquell - Jazz
DYEAR=2004
DGENRE=Jazz
TTITLE0=Have you been to Tahiti?
TTITLE1=Muse
TTITLE2=Berlin nights
TTITLE3=Nocturne
TTITLE4=The sun of red
EXTD=YEAR: 2004
EXTT0=
EXTT1=
EXTT2=
EXTT3=
EXTT4=
PLAYORDER=
